HIERARCHY
ROOT Hips
{
	OFFSET 62.890800 8.863803 43.568401
	CHANNELS 6 Xposition Yposition Zposition Zrotation Xrotation Yrotation
	JOINT Chest
	{
		OFFSET -0.160400 1.630001 7.806301
		CHANNELS 6 Xposition Yposition Zposition Zrotation Xrotation Yrotation
		JOINT Chest2
		{
			OFFSET 0.000000 0.000000 3.197998
			CHANNELS 6 Xposition Yposition Zposition Zrotation Xrotation Yrotation
			JOINT Neck
			{
				OFFSET 0.000000 0.000001 7.440701
				CHANNELS 6 Xposition Yposition Zposition Zrotation Xrotation Yrotation
				JOINT Head
				{
					OFFSET 0.000000 0.000000 2.173901
					CHANNELS 6 Xposition Yposition Zposition Zrotation Xrotation Yrotation
					End Site
					{
						OFFSET 0.000000 0.000001 10.420303
					}
				}
			}
			JOINT LeftCollar
			{
				OFFSET 2.426399 -1.880099 4.759399
				CHANNELS 6 Xposition Yposition Zposition Zrotation Xrotation Yrotation
				JOINT LeftShoulder
				{
					OFFSET 4.420197 0.000000 0.000000
					CHANNELS 6 Xposition Yposition Zposition Zrotation Xrotation Yrotation
					JOINT LeftElbow
					{
						OFFSET 0.000000 -0.000001 -10.347099
						CHANNELS 6 Xposition Yposition Zposition Zrotation Xrotation Yrotation
						JOINT LeftWrist
						{
							OFFSET 0.000000 -0.000001 -12.496300
							CHANNELS 6 Xposition Yposition Zposition Zrotation Xrotation Yrotation
							End Site
							{
								OFFSET 0.000000 0.000000 -2.173901
							}
						}
					}
				}
			}
			JOINT RightCollar
			{
				OFFSET -2.781502 -1.903799 5.072601
				CHANNELS 6 Xposition Yposition Zposition Zrotation Xrotation Yrotation
				JOINT RightShoulder
				{
					OFFSET -4.012100 0.000000 0.000000
					CHANNELS 6 Xposition Yposition Zposition Zrotation Xrotation Yrotation
					JOINT RightElbow
					{
						OFFSET 0.000000 -0.000001 -10.346600
						CHANNELS 6 Xposition Yposition Zposition Zrotation Xrotation Yrotation
						JOINT RightWrist
						{
							OFFSET 0.000000 -0.000001 -12.562599
							CHANNELS 6 Xposition Yposition Zposition Zrotation Xrotation Yrotation
							End Site
							{
								OFFSET 0.000000 0.000000 -2.173901
							}
						}
					}
				}
			}
		}
	}
	JOINT LeftHip
	{
		OFFSET 2.047997 -0.047200 -2.693199
		CHANNELS 6 Xposition Yposition Zposition Zrotation Xrotation Yrotation
		JOINT LeftKnee
		{
			OFFSET 0.000000 -0.000001 -18.824400
			CHANNELS 6 Xposition Yposition Zposition Zrotation Xrotation Yrotation
			JOINT LeftAnkle
			{
				OFFSET 0.000000 -0.000002 -19.078199
				CHANNELS 6 Xposition Yposition Zposition Zrotation Xrotation Yrotation
				End Site
				{
					OFFSET 0.000000 -9.342100 0.000001
				}
			}
		}
	}
	JOINT RightHip
	{
		OFFSET -2.129898 -0.022300 -2.538300
		CHANNELS 6 Xposition Yposition Zposition Zrotation Xrotation Yrotation
		JOINT RightKnee
		{
			OFFSET 0.000000 -0.000001 -18.644600
			CHANNELS 6 Xposition Yposition Zposition Zrotation Xrotation Yrotation
			JOINT RightAnkle
			{
				OFFSET 0.000000 -0.000002 -18.801399
				CHANNELS 6 Xposition Yposition Zposition Zrotation Xrotation Yrotation
				End Site
				{
					OFFSET 0.000000 -8.914600 0.000001
				}
			}
		}
	}
}
MOTION
Frames: 9
Frame Time: 0.041667
40.911995 29.127014 45.665478 -83.519854 10.578442 -1.595987 -0.160395 1.630001 7.806308 -6.661201 7.033153 1.335384 0.000009 -0.000001 3.197997 1.701925 -2.774315 0.118075 -0.000003 0.000008 7.440699 4.721365 28.686986 -2.522867 -0.000009 0.000003 2.173901 0.432864 1.085244 -0.144678 2.426399 -1.880096 4.759398 -166.608681 185.594353 -207.301337 4.420190 0.000003 0.000000 -65.448293 -19.419633 -141.408931 0.000000 0.000003 -10.347098 583.217941 -167.570263 -176.382300 0.000002 0.000001 -12.496294 -315.979140 -7.100374 385.637644 -2.781498 -1.903796 5.072598 -191.028397 -181.531292 202.674676 -4.012101 -0.000004 -0.000002 74.575065 -18.822007 514.981182 -0.000002 -0.000004 -10.346607 -409.837633 -10.660152 -7.895486 0.000009 -0.000006 -12.562611 1591.552321 -159.096156 159.830402 2.047997 -0.047203 -2.693198 370.233628 -14.545240 -10.747426 0.000001 -0.000003 -18.824400 209.786788 171.994190 -177.445842 0.000003 -0.000003 -19.078201 -408.916623 20.328410 17.779293 -2.129894 -0.022296 -2.538298 -378.823547 -15.716120 12.888472 -0.000002 -0.000001 -18.644594 139.840487 169.411668 180.160364 -0.000008 -0.000000 -18.801395 46.407427 28.321111 -4.141355
40.980598 29.127510 45.663876 -83.453696 10.545982 -1.578311 -0.160402 1.630004 7.806301 -6.642724 7.086856 1.272310 0.000008 -0.000002 3.197998 1.694947 -2.818587 0.119843 -0.000007 0.000002 7.440703 4.599223 28.520415 -2.475713 -0.000004 -0.000008 2.173906 0.356610 0.904508 -0.098420 2.426400 -1.880098 4.759394 -166.630347 185.588042 -207.122099 4.420191 0.000001 -0.000002 -65.377792 -19.224305 -141.500647 0.000006 -0.000001 -10.347096 583.389243 -167.588568 -176.366276 0.000003 -0.000009 -12.496304 -316.002035 -7.097085 385.593248 -2.781507 -1.903797 5.072600 -191.136123 -181.405781 202.683009 -4.012104 -0.000005 0.000012 74.796077 -18.929538 514.881626 0.000006 -0.000004 -10.346601 -409.501970 -10.864055 -7.856300 0.000010 -0.000008 -12.562601 1591.458447 -159.196560 159.908785 2.047997 -0.047194 -2.693196 370.352336 -14.671605 -10.705992 -0.000001 -0.000006 -18.824402 209.423190 171.936584 -177.458355 -0.000002 0.000001 -19.078197 -408.702537 20.413740 17.555434 -2.129895 -0.022298 -2.538294 -378.715630 -15.665105 12.915591 -0.000003 -0.000006 -18.644604 140.055638 169.440232 180.057037 -0.000000 0.000001 -18.801399 46.059125 28.320693 -4.208402
41.055901 29.127605 45.661781 -83.383530 10.514213 -1.563289 -0.160400 1.630004 7.806310 -6.621599 7.136933 1.207368 0.000007 -0.000002 3.197999 1.679365 -2.860273 0.121295 -0.000005 0.000003 7.440696 4.470482 28.348809 -2.415721 -0.000006 0.000009 2.173909 0.283547 0.703203 -0.062577 2.426400 -1.880098 4.759392 -166.657463 185.578535 -206.930539 4.420195 0.000001 -0.000005 -65.277163 -18.995337 -141.590368 0.000007 0.000003 -10.347096 583.548741 -167.615287 -176.369609 -0.000008 -0.000006 -12.496298 -315.966026 -7.109896 385.594068 -2.781505 -1.903799 5.072596 -191.222784 -181.289750 202.748278 -4.012094 0.000001 0.000018 74.982172 -19.067749 514.789281 -0.000003 -0.000007 -10.346607 -409.190459 -11.039041 -7.831832 -0.000002 0.000001 -12.562602 1591.402057 -159.293248 160.038436 2.047996 -0.047196 -2.693192 370.435310 -14.787482 -10.669854 -0.000002 0.000004 -18.824398 209.064673 171.890576 -177.449257 -0.000000 -0.000007 -19.078199 -408.449219 20.518855 17.290547 -2.129902 -0.022298 -2.538299 -378.573863 -15.587982 12.954720 -0.000007 -0.000000 -18.644608 140.220355 169.518328 179.916499 -0.000004 -0.000002 -18.801397 45.742354 28.353872 -4.307954
41.139996 29.127708 45.658981 -83.307769 10.484873 -1.544069 -0.160403 1.629997 7.806303 -6.624764 7.188239 1.133662 0.000004 0.000006 3.198005 1.671472 -2.898359 0.122709 0.000001 -0.000000 7.440701 4.360826 28.161953 -2.362489 -0.000005 -0.000005 2.173908 0.195731 0.494075 -0.039187 2.426408 -1.880099 4.759398 -166.660728 185.612713 -206.771833 4.420199 -0.000003 0.000000 -65.184648 -18.785310 -141.637783 0.000000 -0.000003 -10.347096 583.729878 -167.652990 -176.368694 0.000002 0.000002 -12.496307 -315.956983 -7.131571 385.572430 -2.781500 -1.903800 5.072598 -191.312902 -181.163965 202.816525 -4.012101 0.000002 -0.000001 75.110620 -19.148734 514.694533 -0.000005 -0.000007 -10.346595 -409.043391 -11.170227 -7.822190 -0.000010 -0.000001 -12.562597 1591.453748 -159.399212 160.204478 2.047997 -0.047199 -2.693195 370.545904 -14.931236 -10.625199 -0.000001 0.000002 -18.824400 208.713642 171.835265 -177.447399 0.000000 -0.000005 -19.078201 -408.238713 20.631082 17.036662 -2.129898 -0.022302 -2.538303 -378.454744 -15.517428 12.982063 -0.000003 0.000001 -18.644604 140.328204 169.625549 179.767273 -0.000002 0.000003 -18.801399 45.513450 28.421590 -4.436411
41.233795 29.128010 45.655682 -83.225732 10.454301 -1.531320 -0.160405 1.629996 7.806307 -6.664995 7.242187 1.070821 0.000003 0.000003 3.197999 1.679352 -2.923816 0.124152 -0.000003 0.000004 7.440705 4.266588 27.941932 -2.303685 -0.000008 -0.000000 2.173910 0.056485 0.281450 0.145421 2.426403 -1.880100 4.759408 -166.624022 185.736421 -206.684475 4.420197 0.000003 -0.000001 -65.142649 -18.647294 -141.602676 0.000000 -0.000000 -10.347092 583.899594 -167.682346 -176.361509 0.000008 0.000003 -12.496296 -315.954552 -7.156480 385.545027 -2.781497 -1.903795 5.072607 -191.397678 -181.039273 203.010298 -4.012096 -0.000004 0.000005 75.242450 -19.356389 514.586998 -0.000004 -0.000001 -10.346601 -408.983313 -11.278260 -7.826431 -0.000005 -0.000001 -12.562610 1591.570243 -159.492198 160.338841 2.047994 -0.047204 -2.693193 370.722779 -15.112951 -10.557314 0.000000 -0.000000 -18.824406 208.372037 171.758070 -177.452700 0.000001 -0.000007 -19.078201 -408.116507 20.748194 16.828029 -2.129897 -0.022303 -2.538294 -378.361088 -15.458762 13.001537 -0.000004 0.000008 -18.644604 140.389484 169.759926 179.617118 0.000003 -0.000001 -18.801397 45.357640 28.525571 -4.536311
41.313599 29.127312 45.652882 -83.152997 10.431730 -1.536843 -0.160402 1.630006 7.806303 -6.797615 7.281641 1.038545 0.000005 0.000003 3.198002 1.718695 -2.936452 0.125840 -0.000004 0.000005 7.440695 4.250666 27.765714 -2.226114 -0.000004 0.000013 2.173900 0.010568 0.133121 0.099975 2.426402 -1.880093 4.759393 -166.536732 185.930085 -206.641021 4.420197 -0.000004 -0.000000 -65.179047 -18.591917 -141.483025 0.000000 -0.000003 -10.347098 583.958170 -167.675065 -176.355225 -0.000006 0.000000 -12.496305 -315.944388 -7.181606 385.533825 -2.781501 -1.903795 5.072598 -191.390752 -181.054053 203.238221 -4.012093 -0.000000 0.000001 75.251753 -19.556029 514.568038 -0.000001 0.000003 -10.346605 -409.065931 -11.315032 -7.822160 0.000012 -0.000005 -12.562602 1591.662697 -159.504397 160.418590 2.047997 -0.047194 -2.693197 370.893233 -15.279483 -10.472166 0.000001 0.000000 -18.824400 208.182704 171.691558 -177.475704 0.000001 -0.000001 -19.078197 -408.154783 20.833091 16.792435 -2.129900 -0.022293 -2.538295 -378.373028 -15.457138 13.000860 -0.000003 -0.000001 -18.644598 140.317043 169.885997 179.528749 -0.000008 0.000007 -18.801401 45.443769 28.659207 -4.563690
41.396099 29.125713 45.650482 -83.086499 10.421374 -1.557522 -0.160400 1.630002 7.806306 -6.776978 7.295385 1.033507 0.000001 0.000003 3.198008 1.685033 -2.952791 0.125492 -0.000013 0.000004 7.440706 4.139055 27.633673 -2.152777 -0.000000 0.000010 2.173903 -0.017467 -0.025921 0.074092 2.426392 -1.880099 4.759400 -166.454265 185.996884 -206.702534 4.420193 -0.000004 -0.000013 -65.327604 -18.713001 -141.436374 0.000000 -0.000000 -10.347098 583.967623 -167.654752 -176.365347 0.000003 -0.000004 -12.496305 -316.035284 -7.222371 385.532213 -2.781502 -1.903795 5.072605 -191.386873 -181.024151 203.341698 -4.012105 -0.000002 -0.000003 75.170842 -19.657182 514.478699 -0.000007 -0.000002 -10.346603 -409.078280 -11.378848 -7.823358 -0.000007 -0.000003 -12.562599 1591.646195 -159.494780 160.425134 2.047994 -0.047197 -2.693195 371.136661 -15.492198 -10.358030 0.000000 0.000004 -18.824406 208.084186 171.593162 -177.510387 0.000002 -0.000002 -19.078201 -408.372366 20.915726 16.867301 -2.129895 -0.022297 -2.538294 -378.451575 -15.517951 12.981584 0.000003 0.000000 -18.644600 140.221748 169.999023 179.487973 -0.000007 -0.000003 -18.801397 45.614435 28.817377 -4.520249
41.481701 29.124111 45.647381 -83.016892 10.410544 -1.583438 -0.160399 1.629999 7.806306 -6.790548 7.308716 1.052505 0.000009 0.000002 3.197999 1.677563 -2.970997 0.125639 -0.000009 -0.000001 7.440694 4.037817 27.506826 -2.098578 -0.000003 0.000002 2.173920 -0.069592 -0.165945 0.037098 2.426399 -1.880097 4.759394 -166.375827 186.061388 -206.773144 4.420191 -0.000004 -0.000011 -65.488701 -18.844741 -141.397934 0.000001 -0.000001 -10.347096 584.045214 -167.631857 -176.348354 0.000000 -0.000002 -12.496305 -316.236529 -7.241525 385.474375 -2.781505 -1.903800 5.072598 -191.380972 -181.030544 203.314910 -4.012092 -0.000008 0.000006 75.065794 -19.639099 514.420998 0.000003 0.000001 -10.346604 -409.158657 -11.428011 -7.801504 0.000006 -0.000004 -12.562597 1591.638436 -159.464235 160.382978 2.048002 -0.047196 -2.693197 371.472815 -15.754699 -10.210306 -0.000002 -0.000003 -18.824400 208.008261 171.459113 -177.579195 -0.000000 -0.000006 -19.078203 -408.725733 20.992028 17.008400 -2.129895 -0.022294 -2.538297 -378.541788 -15.595173 12.953490 -0.000004 -0.000004 -18.644600 140.181068 170.103512 179.468685 0.000002 -0.000003 -18.801399 45.720084 28.980192 -4.400106
41.569595 29.120804 45.644577 -82.953139 10.410924 -1.635506 -0.160398 1.630002 7.806315 -6.814818 7.291852 1.119662 0.000005 0.000001 3.198003 1.687867 -2.978789 0.125903 -0.000007 0.000002 7.440703 3.886379 27.392593 -2.011312 0.000001 0.000007 2.173920 -0.101032 -0.299885 -0.006429 2.426401 -1.880102 4.759402 -166.319928 186.115797 -206.858235 4.420197 0.000001 -0.000008 -65.677979 -19.003789 -141.375381 0.000001 0.000002 -10.347095 584.091113 -167.601627 -176.336565 0.000000 0.000000 -12.496303 -316.480367 -7.249757 385.446809 -2.781504 -1.903801 5.072600 -191.362271 -181.069326 203.273478 -4.012103 0.000003 0.000005 75.021603 -19.666507 514.393895 0.000008 -0.000002 -10.346603 -409.149751 -11.472355 -7.764684 0.000009 -0.000003 -12.562601 1591.556036 -159.383407 160.347392 2.048004 -0.047197 -2.693188 371.841045 -16.040240 -10.014935 -0.000000 -0.000004 -18.824398 207.933908 171.310051 -177.670815 0.000007 -0.000004 -19.078197 -409.102950 21.065905 17.157848 -2.129896 -0.022299 -2.538295 -378.629187 -15.702634 12.936463 -0.000001 0.000003 -18.644600 140.187078 170.209967 179.467592 -0.000001 -0.000003 -18.801399 45.780624 29.143977 -4.231526
